<?xml version='1.0' encoding='UTF-8'?>
<svg width="41mm" height="41mm" version="1.1" viewBox="0 0 41 41" xmlns="http://www.w3.org/2000/svg"><path d="M2,2H3V3H2zM3,2H4V3H3zM4,2H5V3H4zM5,2H6V3H5zM6,2H7V3H6zM7,2H8V3H7zM8,2H9V3H8zM12,2H13V3H12zM15,2H16V3H15zM17,2H18V3H17zM18,2H19V3H18zM20,2H21V3H20zM22,2H23V3H22zM24,2H25V3H24zM25,2H26V3H25zM28,2H29V3H28zM30,2H31V3H30zM32,2H33V3H32zM33,2H34V3H33zM34,2H35V3H34zM35,2H36V3H35zM36,2H37V3H36zM37,2H38V3H37zM38,2H39V3H38zM2,3H3V4H2zM8,3H9V4H8zM11,3H12V4H11zM13,3H14V4H13zM14,3H15V4H14zM16,3H17V4H16zM17,3H18V4H17zM19,3H20V4H19zM20,3H21V4H20zM21,3H22V4H21zM23,3H24V4H23zM27,3H28V4H27zM29,3H30V4H29zM32,3H33V4H32zM38,3H39V4H38zM2,4H3V5H2zM4,4H5V5H4zM5,4H6V5H5zM6,4H7V5H6zM8,4H9V5H8zM10,4H11V5H10zM17,4H18V5H17zM21,4H22V5H21zM22,4H23V5H22zM23,4H24V5H23zM24,4H25V5H24zM28,4H29V5H28zM32,4H33V5H32zM34,4H35V5H34zM35,4H36V5H35zM36,4H37V5H36zM38,4H39V5H38zM2,5H3V6H2zM4,5H5V6H4zM5,5H6V6H5zM6,5H7V6H6zM8,5H9V6H8zM10,5H11V6H10zM12,5H13V6H12zM13,5H14V6H13zM15,5H16V6H15zM16,5H17V6H16zM18,5H19V6H18zM19,5H20V6H19zM21,5H22V6H21zM24,5H25V6H24zM25,5H26V6H25zM26,5H27V6H26zM27,5H28V6H27zM28,5H29V6H28zM29,5H30V6H29zM32,5H33V6H32zM34,5H35V6H34zM35,5H36V6H35zM36,5H37V6H36zM38,5H39V6H38zM2,6H3V7H2zM4,6H5V7H4zM5,6H6V7H5zM6,6H7V7H6zM8,6H9V7H8zM10,6H11V7H10zM15,6H16V7H15zM16,6H17V7H16zM20,6H21V7H20zM21,6H22V7H21zM22,6H23V7H22zM23,6H24V7H23zM24,6H25V7H24zM25,6H26V7H25zM30,6H31V7H30zM32,6H33V7H32zM34,6H35V7H34zM35,6H36V7H35zM36,6H37V7H36zM38,6H39V7H38zM2,7H3V8H2zM8,7H9V8H8zM10,7H11V8H10zM12,7H13V8H12zM14,7H15V8H14zM16,7H17V8H16zM17,7H18V8H17zM18,7H19V8H18zM20,7H21V8H20zM22,7H23V8H22zM24,7H25V8H24zM28,7H29V8H28zM29,7H30V8H29zM32,7H33V8H32zM38,7H39V8H38zM2,8H3V9H2zM3,8H4V9H3zM4,8H5V9H4zM5,8H6V9H5zM6,8H7V9H6zM7,8H8V9H7zM8,8H9V9H8zM10,8H11V9H10zM12,8H13V9H12zM14,8H15V9H14zM16,8H17V9H16zM18,8H19V9H18zM20,8H21V9H20zM22,8H23V9H22zM24,8H25V9H24zM26,8H27V9H26zM28,8H29V9H28zM30,8H31V9H30zM32,8H33V9H32zM33,8H34V9H33zM34,8H35V9H34zM35,8H36V9H35zM36,8H37V9H36zM37,8H38V9H37zM38,8H39V9H38zM10,9H11V10H10zM11,9H12V10H11zM12,9H13V10H12zM13,9H14V10H13zM17,9H18V10H17zM21,9H22V10H21zM22,9H23V10H22zM23,9H24V10H23zM24,9H25V10H24zM25,9H26V10H25zM29,9H30V10H29zM30,9H31V10H30zM2,10H3V11H2zM4,10H5V11H4zM5,10H6V11H5zM6,10H7V11H6zM7,10H8V11H7zM8,10H9V11H8zM11,10H12V11H11zM15,10H16V11H15zM16,10H17V11H16zM20,10H21V11H20zM21,10H22V11H21zM24,10H25V11H24zM26,10H27V11H26zM27,10H28V11H27zM29,10H30V11H29zM30,10H31V11H30zM32,10H33V11H32zM33,10H34V11H33zM34,10H35V11H34zM35,10H36V11H35zM36,10H37V11H36zM2,11H3V12H2zM3,11H4V12H3zM6,11H7V12H6zM7,11H8V12H7zM9,11H10V12H9zM10,11H11V12H10zM11,11H12V12H11zM13,11H14V12H13zM15,11H16V12H15zM17,11H18V12H17zM18,11H19V12H18zM19,11H20V12H19zM23,11H24V12H23zM25,11H26V12H25zM26,11H27V12H26zM27,11H28V12H27zM30,11H31V12H30zM31,11H32V12H31zM33,11H34V12H33zM35,11H36V12H35zM37,11H38V12H37zM3,12H4V13H3zM4,12H5V13H4zM5,12H6V13H5zM6,12H7V13H6zM8,12H9V13H8zM10,12H11V13H10zM11,12H12V13H11zM19,12H20V13H19zM22,12H23V13H22zM23,12H24V13H23zM24,12H25V13H24zM28,12H29V13H28zM29,12H30V13H29zM30,12H31V13H30zM32,12H33V13H32zM33,12H34V13H33zM34,12H35V13H34zM35,12H36V13H35zM37,12H38V13H37zM38,12H39V13H38zM5,13H6V14H5zM6,13H7V14H6zM9,13H10V14H9zM10,13H11V14H10zM11,13H12V14H11zM12,13H13V14H12zM16,13H17V14H16zM18,13H19V14H18zM21,13H22V14H21zM22,13H23V14H22zM23,13H24V14H23zM30,13H31V14H30zM31,13H32V14H31zM32,13H33V14H32zM38,13H39V14H38zM4,14H5V15H4zM8,14H9V15H8zM9,14H10V15H9zM10,14H11V15H10zM14,14H15V15H14zM16,14H17V15H16zM19,14H20V15H19zM21,14H22V15H21zM24,14H25V15H24zM26,14H27V15H26zM27,14H28V15H27zM28,14H29V15H28zM31,14H32V15H31zM32,14H33V15H32zM34,14H35V15H34zM36,14H37V15H36zM37,14H38V15H37zM38,14H39V15H38zM2,15H3V16H2zM4,15H5V16H4zM5,15H6V16H5zM6,15H7V16H6zM7,15H8V16H7zM10,15H11V16H10zM11,15H12V16H11zM14,15H15V16H14zM15,15H16V16H15zM18,15H19V16H18zM19,15H20V16H19zM20,15H21V16H20zM21,15H22V16H21zM23,15H24V16H23zM25,15H26V16H25zM27,15H28V16H27zM30,15H31V16H30zM33,15H34V16H33zM37,15H38V16H37zM5,16H6V17H5zM6,16H7V17H6zM8,16H9V17H8zM12,16H13V17H12zM14,16H15V17H14zM17,16H18V17H17zM18,16H19V17H18zM19,16H20V17H19zM22,16H23V17H22zM23,16H24V17H23zM24,16H25V17H24zM26,16H27V17H26zM27,16H28V17H27zM28,16H29V17H28zM29,16H30V17H29zM30,16H31V17H30zM31,16H32V17H31zM32,16H33V17H32zM33,16H34V17H33zM34,16H35V17H34zM35,16H36V17H35zM37,16H38V17H37zM38,16H39V17H38zM7,17H8V18H7zM9,17H10V18H9zM11,17H12V18H11zM14,17H15V18H14zM15,17H16V18H15zM17,17H18V18H17zM19,17H20V18H19zM20,17H21V18H20zM21,17H22V18H21zM22,17H23V18H22zM23,17H24V18H23zM24,17H25V18H24zM25,17H26V18H25zM28,17H29V18H28zM29,17H30V18H29zM32,17H33V18H32zM33,17H34V18H33zM34,17H35V18H34zM37,17H38V18H37zM38,17H39V18H38zM3,18H4V19H3zM5,18H6V19H5zM6,18H7V19H6zM8,18H9V19H8zM9,18H10V19H9zM12,18H13V19H12zM13,18H14V19H13zM15,18H16V19H15zM16,18H17V19H16zM18,18H19V19H18zM21,18H22V19H21zM24,18H25V19H24zM25,18H26V19H25zM26,18H27V19H26zM27,18H28V19H27zM28,18H29V19H28zM29,18H30V19H29zM32,18H33V19H32zM34,18H35V19H34zM36,18H37V19H36zM37,18H38V19H37zM3,19H4V20H3zM5,19H6V20H5zM7,19H8V20H7zM9,19H10V20H9zM16,19H17V20H16zM17,19H18V20H17zM19,19H20V20H19zM20,19H21V20H20zM21,19H22V20H21zM25,19H26V20H25zM30,19H31V20H30zM33,19H34V20H33zM35,19H36V20H35zM37,19H38V20H37zM2,20H3V21H2zM3,20H4V21H3zM4,20H5V21H4zM5,20H6V21H5zM7,20H8V21H7zM8,20H9V21H8zM11,20H12V21H11zM12,20H13V21H12zM16,20H17V21H16zM17,20H18V21H17zM18,20H19V21H18zM19,20H20V21H19zM23,20H24V21H23zM29,20H30V21H29zM31,20H32V21H31zM33,20H34V21H33zM35,20H36V21H35zM36,20H37V21H36zM37,20H38V21H37zM38,20H39V21H38zM4,21H5V22H4zM5,21H6V22H5zM6,21H7V22H6zM10,21H11V22H10zM12,21H13V22H12zM17,21H18V22H17zM20,21H21V22H20zM22,21H23V22H22zM23,21H24V22H23zM26,21H27V22H26zM28,21H29V22H28zM29,21H30V22H29zM32,21H33V22H32zM33,21H34V22H33zM38,21H39V22H38zM3,22H4V23H3zM4,22H5V23H4zM8,22H9V23H8zM9,22H10V23H9zM10,22H11V23H10zM12,22H13V23H12zM15,22H16V23H15zM17,22H18V23H17zM19,22H20V23H19zM24,22H25V23H24zM25,22H26V23H25zM26,22H27V23H26zM27,22H28V23H27zM28,22H29V23H28zM29,22H30V23H29zM31,22H32V23H31zM32,22H33V23H32zM34,22H35V23H34zM35,22H36V23H35zM36,22H37V23H36zM3,23H4V24H3zM4,23H5V24H4zM6,23H7V24H6zM9,23H10V24H9zM10,23H11V24H10zM11,23H12V24H11zM12,23H13V24H12zM14,23H15V24H14zM15,23H16V24H15zM16,23H17V24H16zM18,23H19V24H18zM21,23H22V24H21zM22,23H23V24H22zM23,23H24V24H23zM24,23H25V24H24zM25,23H26V24H25zM26,23H27V24H26zM27,23H28V24H27zM28,23H29V24H28zM30,23H31V24H30zM35,23H36V24H35zM2,24H3V25H2zM6,24H7V25H6zM7,24H8V25H7zM8,24H9V25H8zM9,24H10V25H9zM11,24H12V25H11zM13,24H14V25H13zM14,24H15V25H14zM15,24H16V25H15zM16,24H17V25H16zM17,24H18V25H17zM18,24H19V25H18zM20,24H21V25H20zM22,24H23V25H22zM23,24H24V25H23zM24,24H25V25H24zM29,24H30V25H29zM31,24H32V25H31zM33,24H34V25H33zM34,24H35V25H34zM35,24H36V25H35zM38,24H39V25H38zM3,25H4V26H3zM5,25H6V26H5zM7,25H8V26H7zM9,25H10V26H9zM10,25H11V26H10zM14,25H15V26H14zM16,25H17V26H16zM23,25H24V26H23zM24,25H25V26H24zM26,25H27V26H26zM31,25H32V26H31zM32,25H33V26H32zM33,25H34V26H33zM34,25H35V26H34zM3,26H4V27H3zM5,26H6V27H5zM8,26H9V27H8zM13,26H14V27H13zM15,26H16V27H15zM17,26H18V27H17zM20,26H21V27H20zM21,26H22V27H21zM24,26H25V27H24zM25,26H26V27H25zM26,26H27V27H26zM27,26H28V27H27zM28,26H29V27H28zM30,26H31V27H30zM31,26H32V27H31zM32,26H33V27H32zM34,26H35V27H34zM36,26H37V27H36zM37,26H38V27H37zM2,27H3V28H2zM3,27H4V28H3zM4,27H5V28H4zM5,27H6V28H5zM6,27H7V28H6zM7,27H8V28H7zM10,27H11V28H10zM11,27H12V28H11zM12,27H13V28H12zM13,27H14V28H13zM14,27H15V28H14zM15,27H16V28H15zM16,27H17V28H16zM17,27H18V28H17zM18,27H19V28H18zM21,27H22V28H21zM22,27H23V28H22zM23,27H24V28H23zM25,27H26V28H25zM30,27H31V28H30zM31,27H32V28H31zM33,27H34V28H33zM36,27H37V28H36zM2,28H3V29H2zM4,28H5V29H4zM7,28H8V29H7zM8,28H9V29H8zM10,28H11V29H10zM11,28H12V29H11zM14,28H15V29H14zM19,28H20V29H19zM23,28H24V29H23zM24,28H25V29H24zM27,28H28V29H27zM28,28H29V29H28zM29,28H30V29H29zM30,28H31V29H30zM31,28H32V29H31zM32,28H33V29H32zM36,28H37V29H36zM37,28H38V29H37zM38,28H39V29H38zM2,29H3V30H2zM5,29H6V30H5zM6,29H7V30H6zM10,29H11V30H10zM13,29H14V30H13zM14,29H15V30H14zM15,29H16V30H15zM16,29H17V30H16zM18,29H19V30H18zM20,29H21V30H20zM21,29H22V30H21zM22,29H23V30H22zM23,29H24V30H23zM24,29H25V30H24zM28,29H29V30H28zM29,29H30V30H29zM30,29H31V30H30zM31,29H32V30H31zM32,29H33V30H32zM37,29H38V30H37zM2,30H3V31H2zM6,30H7V31H6zM8,30H9V31H8zM11,30H12V31H11zM15,30H16V31H15zM16,30H17V31H16zM18,30H19V31H18zM19,30H20V31H19zM21,30H22V31H21zM24,30H25V31H24zM25,30H26V31H25zM26,30H27V31H26zM27,30H28V31H27zM29,30H30V31H29zM30,30H31V31H30zM31,30H32V31H31zM32,30H33V31H32zM33,30H34V31H33zM34,30H35V31H34zM36,30H37V31H36zM10,31H11V32H10zM11,31H12V32H11zM13,31H14V32H13zM14,31H15V32H14zM18,31H19V32H18zM19,31H20V32H19zM20,31H21V32H20zM21,31H22V32H21zM22,31H23V32H22zM25,31H26V32H25zM30,31H31V32H30zM34,31H35V32H34zM35,31H36V32H35zM2,32H3V33H2zM3,32H4V33H3zM4,32H5V33H4zM5,32H6V33H5zM6,32H7V33H6zM7,32H8V33H7zM8,32H9V33H8zM11,32H12V33H11zM14,32H15V33H14zM15,32H16V33H15zM17,32H18V33H17zM19,32H20V33H19zM28,32H29V33H28zM30,32H31V33H30zM32,32H33V33H32zM34,32H35V33H34zM36,32H37V33H36zM37,32H38V33H37zM38,32H39V33H38zM2,33H3V34H2zM8,33H9V34H8zM10,33H11V34H10zM12,33H13V34H12zM13,33H14V34H13zM15,33H16V34H15zM16,33H17V34H16zM19,33H20V34H19zM20,33H21V34H20zM21,33H22V34H21zM22,33H23V34H22zM23,33H24V34H23zM24,33H25V34H24zM26,33H27V34H26zM28,33H29V34H28zM30,33H31V34H30zM34,33H35V34H34zM35,33H36V34H35zM37,33H38V34H37zM2,34H3V35H2zM4,34H5V35H4zM5,34H6V35H5zM6,34H7V35H6zM8,34H9V35H8zM10,34H11V35H10zM12,34H13V35H12zM14,34H15V35H14zM15,34H16V35H15zM16,34H17V35H16zM17,34H18V35H17zM18,34H19V35H18zM21,34H22V35H21zM24,34H25V35H24zM26,34H27V35H26zM27,34H28V35H27zM28,34H29V35H28zM29,34H30V35H29zM30,34H31V35H30zM31,34H32V35H31zM32,34H33V35H32zM33,34H34V35H33zM34,34H35V35H34zM36,34H37V35H36zM37,34H38V35H37zM2,35H3V36H2zM4,35H5V36H4zM5,35H6V36H5zM6,35H7V36H6zM8,35H9V36H8zM10,35H11V36H10zM11,35H12V36H11zM15,35H16V36H15zM17,35H18V36H17zM20,35H21V36H20zM21,35H22V36H21zM22,35H23V36H22zM23,35H24V36H23zM25,35H26V36H25zM27,35H28V36H27zM28,35H29V36H28zM29,35H30V36H29zM31,35H32V36H31zM32,35H33V36H32zM34,35H35V36H34zM35,35H36V36H35zM38,35H39V36H38zM2,36H3V37H2zM4,36H5V37H4zM5,36H6V37H5zM6,36H7V37H6zM8,36H9V37H8zM10,36H11V37H10zM13,36H14V37H13zM15,36H16V37H15zM16,36H17V37H16zM17,36H18V37H17zM18,36H19V37H18zM22,36H23V37H22zM26,36H27V37H26zM28,36H29V37H28zM29,36H30V37H29zM30,36H31V37H30zM31,36H32V37H31zM36,36H37V37H36zM37,36H38V37H37zM38,36H39V37H38zM2,37H3V38H2zM8,37H9V38H8zM14,37H15V38H14zM17,37H18V38H17zM22,37H23V38H22zM23,37H24V38H23zM25,37H26V38H25zM26,37H27V38H26zM28,37H29V38H28zM29,37H30V38H29zM30,37H31V38H30zM32,37H33V38H32zM34,37H35V38H34zM38,37H39V38H38zM2,38H3V39H2zM3,38H4V39H3zM4,38H5V39H4zM5,38H6V39H5zM6,38H7V39H6zM7,38H8V39H7zM8,38H9V39H8zM10,38H11V39H10zM15,38H16V39H15zM17,38H18V39H17zM18,38H19V39H18zM19,38H20V39H19zM26,38H27V39H26zM27,38H28V39H27zM28,38H29V39H28zM34,38H35V39H34zM36,38H37V39H36zM37,38H38V39H37zM38,38H39V39H38z" id="qr-path" fill="#000000" fill-opacity="1" fill-rule="nonzero" stroke="none" /></svg>